<?xml version="1.0" standalone="no"?>
<!DOCTYPE svg PUBLIC "-//W3C//DTD SVG 20010904//EN"
 "http://www.w3.org/TR/2001/REC-SVG-20010904/DTD/svg10.dtd">
<svg version="1.0" xmlns="http://www.w3.org/2000/svg"
 width="300.000000pt" height="300.000000pt" viewBox="0 0 300.000000 300.000000"
 preserveAspectRatio="xMidYMid meet">
<metadata>
Created by potrace 1.11, written by Peter Selinger 2001-2013
</metadata>
<g transform="translate(0.000000,300.000000) scale(0.100000,-0.100000)"
fill="#000000" stroke="none">
<path d="M1428 2685 c-2 -2 -32 -6 -67 -10 -35 -4 -74 -11 -87 -16 -13 -4 -24
-7 -24 -4 0 5 -105 -31 -123 -42 -6 -4 -17 -8 -23 -9 -17 -3 -96 -55 -124 -83
-14 -13 -18 -21 -10 -16 8 4 6 -1 -5 -12 -11 -11 -24 -18 -30 -15 -5 3 -7 1
-2 -3 4 -5 0 -19 -9 -33 -12 -18 -12 -23 -3 -17 8 3 7 1 -2 -7 -8 -7 -15 -26
-14 -43 1 -16 -3 -35 -7 -42 -6 -7 -4 -14 3 -19 8 -5 9 -3 4 6 -5 8 -4 11 2 7
5 -3 8 -19 7 -36 -1 -18 4 -32 13 -35 8 -3 13 -11 11 -17 -4 -13 65 -89 81
-89 6 0 11 -4 11 -9 0 -25 206 -107 290 -114 14 -1 30 -5 35 -8 11 -7 389 -5
420 2 11 3 25 8 30 11 6 3 18 4 28 3 9 -2 17 1 17 6 0 5 11 9 25 9 14 0 25 4
25 8 0 4 9 8 21 9 11 1 33 10 47 20 46 30 70 41 78 35 4 -4 4 -1 0 6 -4 7 -1
15 8 18 9 3 16 12 16 20 0 8 7 14 16 14 8 0 12 5 9 10 -3 6 1 13 9 16 9 3 13
10 10 15 -3 5 2 9 10 9 9 0 13 7 11 20 -2 11 1 20 7 20 7 0 7 4 -1 13 -8 10
-7 17 1 25 9 9 9 12 -1 12 -11 0 -11 3 -1 15 8 9 9 15 2 15 -6 0 -9 9 -7 20 2
13 -2 20 -11 20 -9 0 -14 7 -12 18 2 10 -2 16 -11 14 -8 -2 -11 3 -8 13 4 9 1
15 -9 15 -8 0 -12 5 -9 10 3 6 -1 10 -10 10 -9 0 -13 5 -10 10 3 6 -3 10 -14
10 -12 0 -26 9 -33 20 -7 11 -23 20 -35 20 -13 0 -23 5 -23 10 0 6 -5 10 -10
10 -6 0 -28 11 -50 25 -22 14 -40 22 -40 19 0 -4 -6 -1 -14 5 -20 17 -156 62
-166 56 -5 -3 -11 -1 -15 4 -3 5 -13 10 -23 9 -25 -1 -115 12 -124 18 -4 3 -8
1 -8 -4 0 -6 -14 -7 -34 -2 -19 4 -36 6 -38 5z"/>
<path d="M1187 1974 c-2 -2 -21 -6 -43 -10 -21 -3 -57 -10 -79 -15 -22 -5 -51
-12 -65 -15 -14 -3 -35 -12 -47 -20 -13 -8 -23 -11 -23 -8 0 4 -9 -1 -21 -12
-12 -10 -24 -19 -27 -19 -4 0 -19 -12 -35 -27 -15 -16 -25 -28 -22 -28 3 0 0
-6 -7 -14 -7 -8 -17 -12 -21 -9 -5 3 -4 -4 2 -15 7 -13 7 -23 2 -27 -5 -3 -8
-17 -5 -31 3 -16 1 -23 -6 -19 -6 3 -7 0 -4 -9 3 -9 11 -13 18 -9 8 4 8 2 -1
-7 -6 -7 -9 -19 -6 -28 4 -10 2 -13 -5 -8 -8 5 -10 2 -6 -8 3 -9 11 -13 18 -9
7 4 7 1 -1 -9 -7 -8 -10 -18 -6 -21 3 -4 0 -7 -7 -7 -9 0 -7 -5 6 -14 15 -12
16 -17 7 -27 -10 -10 -10 -16 0 -28 10 -12 9 -14 -8 -7 -15 5 -17 4 -8 -5 6
-6 9 -18 6 -27 -5 -11 -3 -13 8 -7 11 7 12 6 2 -6 -10 -12 -10 -18 0 -29 10
-10 9 -12 -6 -7 -14 5 -16 3 -9 -11 5 -9 7 -23 4 -31 -3 -10 0 -11 9 -5 12 6
12 5 1 -8 -9 -11 -10 -18 -2 -23 6 -3 7 -12 3 -18 -13 -21 -13 -47 0 -47 9 0
9 -2 -1 -9 -11 -7 -11 -11 0 -22 8 -8 15 -17 16 -21 1 -5 2 -9 3 -10 0 -2 2
-12 4 -23 2 -11 9 -21 15 -23 5 -2 8 -8 4 -13 -3 -5 2 -12 10 -15 9 -3 16 -12
16 -20 0 -8 3 -14 8 -14 4 0 23 -15 42 -33 19 -17 47 -38 62 -46 15 -8 25 -17
23 -22 -3 -4 0 -9 5 -11 6 -2 12 -11 13 -20 2 -9 9 -24 17 -34 12 -15 12 -16
1 -9 -11 6 -12 5 -5 -6 9 -14 14 -34 16 -56 1 -7 6 -13 11 -13 5 0 7 -9 4 -20
-3 -11 -1 -23 4 -26 5 -3 7 -9 4 -14 -3 -5 -1 -11 5 -15 5 -3 10 -17 10 -31 0
-18 4 -23 13 -18 7 5 6 0 -3 -11 -14 -17 -13 -18 5 -11 15 5 17 4 9 -4 -13
-13 -6 -60 8 -60 5 0 7 -4 3 -9 -3 -5 -1 -12 3 -15 5 -3 7 -18 4 -32 -3 -19
-1 -25 7 -20 7 5 12 -2 13 -18 0 -14 1 -32 2 -38 1 -7 6 -16 13 -21 7 -4 10
-14 7 -22 -4 -8 -2 -15 3 -15 5 0 18 -8 29 -18 22 -20 75 -46 88 -43 4 1 14
-4 22 -10 11 -9 14 -9 14 0 0 7 3 10 8 8 7 -5 93 -19 120 -20 6 0 12 -5 12
-10 0 -5 7 -4 16 4 13 10 17 10 24 0 5 -8 13 -10 21 -5 17 10 79 12 79 2 0 -4
11 -3 25 2 18 7 25 6 25 -2 0 -9 3 -9 11 -1 7 7 20 8 34 3 12 -4 28 -4 35 0 8
5 22 4 32 -1 10 -5 18 -6 18 -1 0 4 10 8 21 9 12 1 29 9 38 17 10 9 21 13 24
9 4 -3 7 -1 7 6 0 7 4 9 10 6 6 -4 7 1 3 12 -3 10 -2 15 2 11 12 -11 34 35 23
48 -5 7 -3 14 5 17 7 3 12 19 12 40 -1 20 2 34 7 31 4 -3 8 0 8 6 0 6 4 9 8 6
5 -3 9 1 9 9 0 8 -5 12 -10 8 -5 -3 -4 4 2 16 8 14 8 21 1 21 -5 0 -1 9 10 20
21 21 26 40 12 40 -5 0 -9 6 -9 14 0 8 5 14 10 13 13 -3 28 41 17 48 -6 3 0
19 12 35 18 25 19 32 8 45 -11 14 -11 16 1 13 8 -2 13 3 12 10 -2 6 1 12 6 12
5 0 8 11 7 24 -2 14 3 27 10 30 8 3 14 14 14 24 0 19 55 53 98 61 4 1 0 6 -8
11 -13 9 -13 10 0 11 8 1 19 1 23 0 5 -1 6 3 3 7 -6 11 28 54 36 46 3 -3 8 7
12 21 4 14 11 25 17 25 6 0 7 5 4 10 -3 5 -1 10 5 10 6 0 8 5 5 10 -3 6 0 10
7 10 9 0 9 3 -2 10 -12 8 -12 10 -1 10 10 0 11 3 2 14 -9 10 -8 15 3 19 16 6
27 75 13 84 -5 3 -4 9 2 13 8 4 9 15 3 31 -7 18 -5 27 7 37 9 7 11 11 4 8 -6
-4 -14 -2 -18 4 -3 5 -1 10 6 10 8 0 8 4 -1 15 -7 9 -8 15 -2 15 5 0 8 9 5 20
-3 11 0 27 7 35 11 13 10 14 -6 9 -13 -5 -16 -4 -9 4 6 6 8 40 5 79 -4 53 -2
71 10 81 8 8 10 11 4 8 -6 -3 -18 4 -27 15 -16 18 -16 19 1 19 14 0 15 2 2 9
-8 6 -18 7 -22 5 -4 -3 -8 0 -8 5 0 16 -42 61 -52 55 -4 -3 -8 0 -8 6 0 6 -13
16 -30 21 -16 6 -30 15 -30 19 0 4 -9 6 -20 3 -11 -3 -20 -1 -20 4 0 23 -157
78 -285 99 -33 6 -613 13 -618 8z"/>
</g>
</svg>
