<?xml version="1.0" standalone="no"?>
<!DOCTYPE svg PUBLIC "-//W3C//DTD SVG 20010904//EN"
 "http://www.w3.org/TR/2001/REC-SVG-20010904/DTD/svg10.dtd">
<svg version="1.0" xmlns="http://www.w3.org/2000/svg"
 width="300.000000pt" height="300.000000pt" viewBox="0 0 300.000000 300.000000"
 preserveAspectRatio="xMidYMid meet">
<metadata>
Created by potrace 1.11, written by Peter Selinger 2001-2013
</metadata>
<g transform="translate(0.000000,300.000000) scale(0.100000,-0.100000)"
fill="#000000" stroke="none">
<path d="M1373 2656 c-81 -26 -140 -80 -181 -166 -23 -46 -27 -69 -27 -140 0
-100 27 -170 91 -234 62 -62 134 -90 229 -91 93 0 150 23 217 88 64 62 93 135
93 237 0 73 -4 93 -28 142 -31 63 -86 116 -156 150 -56 27 -177 34 -238 14z"/>
<path d="M1263 1952 c-71 -25 -122 -67 -147 -121 -19 -42 -21 -66 -24 -275 -4
-301 14 -401 93 -494 31 -37 49 -96 69 -227 32 -219 58 -350 73 -375 25 -42
52 -53 148 -58 106 -5 141 7 168 60 9 18 37 151 61 295 42 255 44 263 76 300
79 89 100 188 100 474 0 251 -8 294 -67 351 -74 72 -114 83 -318 86 -153 2
-188 -1 -232 -16z"/>
</g>
</svg>
